<?xml version="1.0" standalone="no"?>
<!DOCTYPE svg PUBLIC "-//W3C//DTD SVG 20010904//EN"
 "http://www.w3.org/TR/2001/REC-SVG-20010904/DTD/svg10.dtd">
<svg version="1.0" xmlns="http://www.w3.org/2000/svg"
 width="700.000000pt" height="700.000000pt" viewBox="0 0 700.000000 700.000000"
 preserveAspectRatio="xMidYMid meet">
<metadata>
Created by potrace 1.11, written by Peter Selinger 2001-2013
</metadata>
<g transform="translate(0.000000,700.000000) scale(0.100000,-0.100000)"
fill="#000000" stroke="none">
<path d="M534 6985 c-243 -53 -432 -226 -506 -465 l-23 -75 0 -2945 0 -2945
23 -75 c35 -112 86 -196 171 -281 85 -85 169 -136 281 -171 l75 -23 2945 0
2945 0 75 23 c112 35 196 86 281 171 85 85 136 169 171 281 l23 75 0 2945 0
2945 -23 75 c-35 112 -86 196 -171 281 -83 83 -165 134 -276 171 l-70 23
-2930 2 c-2416 1 -2941 -1 -2991 -12z m1606 -4370 l0 -255 1360 0 1360 0 0
255 0 255 415 0 415 0 0 -503 c0 -469 -1 -508 -19 -559 -46 -133 -149 -233
-283 -273 -46 -13 -262 -15 -1888 -15 -1613 0 -1843 2 -1887 15 -136 41 -238
138 -284 273 -18 51 -19 90 -19 559 l0 503 415 0 415 0 0 -255z"/>
</g>
</svg>
